<svg width="107" height="59" viewBox="0 0 107 59" fill="none" xmlns="http://www.w3.org/2000/svg">
<path d="M24.1462 21.4028H24.1433C21.7453 21.4028 19.8013 23.1304 19.8013 25.2615V25.264C19.8013 27.3951 21.7453 29.1227 24.1433 29.1227H24.1462C26.5442 29.1227 28.4882 27.3951 28.4882 25.264V25.2615C28.4882 23.1304 26.5442 21.4028 24.1462 21.4028Z" fill="#AFB1B8"/>
<path d="M56.195 20.1693C56.1882 17.2093 54.8623 14.3723 52.5074 12.279C50.1525 10.1857 46.9604 9.00672 43.6297 9V9C40.298 9.00538 37.1045 10.1838 34.7484 12.2772C32.3922 14.3706 31.0655 17.2085 31.0587 20.1693V36.4922C31.0587 36.4922 56.1922 34.0045 56.195 20.1719V20.1693Z" fill="#AFB1B8"/>
<path d="M11 41.8495C11.006 43.9091 11.9291 45.8829 13.5676 47.3394C15.2061 48.796 17.4267 49.6171 19.7442 49.6231C22.0612 49.6171 24.2814 48.7964 25.9197 47.3403C27.5581 45.8843 28.4816 43.9112 28.4884 41.8521V30.4944C28.4884 30.4944 11 32.2267 11 41.8495ZM19.7442 43.8845C19.2913 43.8845 18.8486 43.7651 18.472 43.5415C18.0955 43.3179 17.802 43.0001 17.6287 42.6283C17.4554 42.2564 17.41 41.8473 17.4984 41.4525C17.5867 41.0578 17.8048 40.6952 18.125 40.4106C18.4453 40.126 18.8533 39.9322 19.2975 39.8537C19.7416 39.7751 20.202 39.8154 20.6205 39.9695C21.0389 40.1235 21.3965 40.3843 21.6481 40.7189C21.8997 41.0536 22.034 41.447 22.034 41.8495C22.0351 42.1174 21.9767 42.3828 21.8622 42.6306C21.7476 42.8784 21.5791 43.1036 21.3664 43.2934C21.1536 43.4832 20.9008 43.6337 20.6224 43.7365C20.3441 43.8392 20.0456 43.8921 19.7442 43.8921V43.8845Z" fill="#AFB1B8"/>
<path d="M37.4177 42.7638H35.7302V44.507H34.8513V40.2413H37.6286V40.9532H35.7302V42.0548H37.4177V42.7638ZM41.6423 42.4708C41.6423 42.8907 41.5681 43.2589 41.4196 43.5753C41.2712 43.8917 41.0583 44.1359 40.7809 44.3077C40.5056 44.4796 40.1891 44.5656 39.8317 44.5656C39.4782 44.5656 39.1628 44.4806 38.8854 44.3107C38.6081 44.1407 38.3932 43.8986 38.2409 43.5841C38.0886 43.2677 38.0114 42.9044 38.0095 42.4943V42.2833C38.0095 41.8634 38.0847 41.4943 38.235 41.1759C38.3874 40.8556 38.6013 40.6105 38.8766 40.4406C39.154 40.2687 39.4704 40.1827 39.8259 40.1827C40.1813 40.1827 40.4968 40.2687 40.7722 40.4406C41.0495 40.6105 41.2634 40.8556 41.4138 41.1759C41.5661 41.4943 41.6423 41.8624 41.6423 42.2804V42.4708ZM40.7516 42.2775C40.7516 41.8302 40.6716 41.4904 40.5114 41.2579C40.3513 41.0255 40.1227 40.9093 39.8259 40.9093C39.5309 40.9093 39.3034 41.0245 39.1432 41.255C38.9831 41.4835 38.902 41.8195 38.9001 42.2628V42.4708C38.9001 42.9064 38.9802 43.2443 39.1403 43.4845C39.3005 43.7247 39.5309 43.8448 39.8317 43.8448C40.1266 43.8448 40.3532 43.7296 40.5114 43.4991C40.6696 43.2667 40.7497 42.9288 40.7516 42.4855V42.2775ZM44.4929 43.3878C44.4929 43.2218 44.4343 43.0948 44.3171 43.007C44.1999 42.9171 43.989 42.8234 43.6843 42.7257C43.3796 42.6261 43.1384 42.5284 42.9606 42.4327C42.4763 42.171 42.2341 41.8185 42.2341 41.3751C42.2341 41.1447 42.2985 40.9396 42.4274 40.7599C42.5583 40.5782 42.7448 40.4366 42.987 40.3351C43.2311 40.2335 43.5046 40.1827 43.8073 40.1827C44.112 40.1827 44.3835 40.2384 44.6218 40.3497C44.86 40.4591 45.0446 40.6144 45.1755 40.8156C45.3083 41.0167 45.3747 41.2452 45.3747 41.5011H44.4958C44.4958 41.3058 44.4343 41.1544 44.3112 41.047C44.1882 40.9376 44.0153 40.8829 43.7927 40.8829C43.5778 40.8829 43.4108 40.9288 43.2917 41.0206C43.1725 41.1105 43.113 41.2296 43.113 41.3781C43.113 41.5167 43.1823 41.6329 43.321 41.7267C43.4616 41.8204 43.6677 41.9083 43.9391 41.9904C44.4391 42.1407 44.8034 42.3273 45.0319 42.5499C45.2604 42.7726 45.3747 43.0499 45.3747 43.382C45.3747 43.7511 45.235 44.0411 44.9557 44.2521C44.6765 44.4611 44.3005 44.5656 43.8278 44.5656C43.4997 44.5656 43.2009 44.506 42.9313 44.3868C42.6618 44.2657 42.4557 44.1007 42.3132 43.8917C42.1725 43.6827 42.1022 43.4406 42.1022 43.1652H42.9841C42.9841 43.6359 43.2653 43.8712 43.8278 43.8712C44.0368 43.8712 44.1999 43.8292 44.3171 43.7452C44.4343 43.6593 44.4929 43.5402 44.4929 43.3878ZM49.1833 40.9532H47.8766V44.507H46.9977V40.9532H45.7087V40.2413H49.1833V40.9532ZM52.2536 42.6583H50.5661V43.8009H52.5466V44.507H49.6872V40.2413H52.5407V40.9532H50.5661V41.9698H52.2536V42.6583ZM54.6413 42.9454H53.9411V44.507H53.0622V40.2413H54.6472C55.1511 40.2413 55.5397 40.3536 55.8132 40.5782C56.0866 40.8029 56.2233 41.1202 56.2233 41.5304C56.2233 41.8214 56.1599 42.0646 56.0329 42.2599C55.9079 42.4532 55.7175 42.6075 55.4616 42.7228L56.3845 44.4659V44.507H55.4411L54.6413 42.9454ZM53.9411 42.2335H54.6501C54.8708 42.2335 55.0417 42.1779 55.1628 42.0665C55.2839 41.9532 55.3444 41.798 55.3444 41.6007C55.3444 41.3995 55.2868 41.2413 55.1716 41.1261C55.0583 41.0109 54.8835 40.9532 54.6472 40.9532H53.9411V42.2335ZM59.2673 43.004V44.507H58.3884V40.2413H60.0524C60.3727 40.2413 60.654 40.2999 60.8962 40.4171C61.1403 40.5343 61.3278 40.7013 61.4587 40.9181C61.5895 41.1329 61.655 41.3781 61.655 41.6534C61.655 42.0714 61.5114 42.4015 61.2243 42.6437C60.9391 42.8839 60.5436 43.004 60.0378 43.004H59.2673ZM59.2673 42.2921H60.0524C60.2849 42.2921 60.4616 42.2374 60.5827 42.1281C60.7057 42.0187 60.7673 41.8624 60.7673 41.6593C60.7673 41.4503 60.7057 41.2814 60.5827 41.1525C60.4597 41.0236 60.2897 40.9572 60.0729 40.9532H59.2673V42.2921ZM64.8278 42.6583H63.1403V43.8009H65.1208V44.507H62.2614V40.2413H65.1149V40.9532H63.1403V41.9698H64.8278V42.6583ZM68.9059 40.9532H67.5993V44.507H66.7204V40.9532H65.4313V40.2413H68.9059V40.9532ZM71.9763 42.6583H70.2888V43.8009H72.2692V44.507H69.4099V40.2413H72.2634V40.9532H70.2888V41.9698H71.9763V42.6583ZM74.364 42.9454H73.6638V44.507H72.7849V40.2413H74.3698C74.8737 40.2413 75.2624 40.3536 75.5358 40.5782C75.8093 40.8029 75.946 41.1202 75.946 41.5304C75.946 41.8214 75.8825 42.0646 75.7556 42.2599C75.6306 42.4532 75.4401 42.6075 75.1843 42.7228L76.1071 44.4659V44.507H75.1638L74.364 42.9454ZM73.6638 42.2335H74.3727C74.5934 42.2335 74.7643 42.1779 74.8854 42.0665C75.0065 41.9532 75.0671 41.798 75.0671 41.6007C75.0671 41.3995 75.0095 41.2413 74.8942 41.1261C74.7809 41.0109 74.6061 40.9532 74.3698 40.9532H73.6638V42.2335ZM78.8288 43.3878C78.8288 43.2218 78.7702 43.0948 78.653 43.007C78.5358 42.9171 78.3249 42.8234 78.0202 42.7257C77.7155 42.6261 77.4743 42.5284 77.2966 42.4327C76.8122 42.171 76.57 41.8185 76.57 41.3751C76.57 41.1447 76.6345 40.9396 76.7634 40.7599C76.8942 40.5782 77.0807 40.4366 77.3229 40.3351C77.5671 40.2335 77.8405 40.1827 78.1432 40.1827C78.4479 40.1827 78.7194 40.2384 78.9577 40.3497C79.196 40.4591 79.3806 40.6144 79.5114 40.8156C79.6442 41.0167 79.7106 41.2452 79.7106 41.5011H78.8317C78.8317 41.3058 78.7702 41.1544 78.6472 41.047C78.5241 40.9376 78.3513 40.8829 78.1286 40.8829C77.9138 40.8829 77.7468 40.9288 77.6276 41.0206C77.5085 41.1105 77.4489 41.2296 77.4489 41.3781C77.4489 41.5167 77.5182 41.6329 77.6569 41.7267C77.7975 41.8204 78.0036 41.9083 78.2751 41.9904C78.7751 42.1407 79.1393 42.3273 79.3679 42.5499C79.5964 42.7726 79.7106 43.0499 79.7106 43.382C79.7106 43.7511 79.571 44.0411 79.2917 44.2521C79.0124 44.4611 78.6364 44.5656 78.1638 44.5656C77.8356 44.5656 77.5368 44.506 77.2673 44.3868C76.9977 44.2657 76.7917 44.1007 76.6491 43.8917C76.5085 43.6827 76.4382 43.4406 76.4382 43.1652H77.32C77.32 43.6359 77.6013 43.8712 78.1638 43.8712C78.3727 43.8712 78.5358 43.8292 78.653 43.7452C78.7702 43.6593 78.8288 43.5402 78.8288 43.3878Z" fill="#AFB1B8"/>
</svg>
