<svg width="107" height="59" viewBox="0 0 107 59" fill="none" xmlns="http://www.w3.org/2000/svg">
<path d="M24.1462 21.4028H24.1433C21.7453 21.4028 19.8013 23.1304 19.8013 25.2615V25.264C19.8013 27.3951 21.7453 29.1227 24.1433 29.1227H24.1462C26.5442 29.1227 28.4882 27.3951 28.4882 25.264V25.2615C28.4882 23.1304 26.5442 21.4028 24.1462 21.4028Z" fill="#AFB1B8"/>
<path d="M56.195 20.1693C56.1882 17.2093 54.8623 14.3723 52.5074 12.279C50.1525 10.1857 46.9604 9.00672 43.6297 9V9C40.298 9.00538 37.1045 10.1838 34.7484 12.2772C32.3922 14.3706 31.0655 17.2085 31.0587 20.1693V36.4922C31.0587 36.4922 56.1922 34.0045 56.195 20.1719V20.1693Z" fill="#AFB1B8"/>
<path d="M11 41.8495C11.006 43.9091 11.9291 45.8829 13.5676 47.3394C15.2061 48.796 17.4267 49.6171 19.7442 49.6231C22.0612 49.6171 24.2814 48.7964 25.9197 47.3403C27.5581 45.8843 28.4816 43.9112 28.4884 41.8521V30.4944C28.4884 30.4944 11 32.2267 11 41.8495ZM19.7442 43.8845C19.2913 43.8845 18.8486 43.7651 18.472 43.5415C18.0955 43.3179 17.802 43.0001 17.6287 42.6283C17.4554 42.2564 17.41 41.8473 17.4984 41.4525C17.5867 41.0578 17.8048 40.6952 18.125 40.4106C18.4453 40.126 18.8533 39.9322 19.2975 39.8537C19.7416 39.7751 20.202 39.8154 20.6205 39.9695C21.0389 40.1235 21.3965 40.3843 21.6481 40.7189C21.8997 41.0536 22.034 41.447 22.034 41.8495C22.0351 42.1174 21.9767 42.3828 21.8622 42.6306C21.7476 42.8784 21.5791 43.1036 21.3664 43.2934C21.1536 43.4832 20.9008 43.6337 20.6224 43.7365C20.3441 43.8392 20.0456 43.8921 19.7442 43.8921V43.8845Z" fill="#AFB1B8"/>
<path d="M35.7302 40.2413V44.507H34.8513V40.2413H35.7302ZM37.4294 42.0636V42.7491H35.4899V42.0636H37.4294ZM37.6345 40.2413V40.9298H35.4899V40.2413H37.6345ZM41.6481 42.2745V42.4767C41.6481 42.8009 41.6042 43.0919 41.5163 43.3497C41.4284 43.6075 41.3044 43.8273 41.1442 44.0089C40.9841 44.1886 40.7927 44.3263 40.57 44.422C40.3493 44.5177 40.1042 44.5656 39.8347 44.5656C39.5671 44.5656 39.322 44.5177 39.0993 44.422C38.8786 44.3263 38.6872 44.1886 38.5251 44.0089C38.363 43.8273 38.237 43.6075 38.1472 43.3497C38.0593 43.0919 38.0153 42.8009 38.0153 42.4767V42.2745C38.0153 41.9484 38.0593 41.6573 38.1472 41.4015C38.235 41.1437 38.3591 40.924 38.5192 40.7423C38.6813 40.5607 38.8727 40.422 39.0934 40.3263C39.3161 40.2306 39.5612 40.1827 39.8288 40.1827C40.0983 40.1827 40.3434 40.2306 40.5641 40.3263C40.7868 40.422 40.9782 40.5607 41.1384 40.7423C41.3005 40.924 41.4255 41.1437 41.5134 41.4015C41.6032 41.6573 41.6481 41.9484 41.6481 42.2745ZM40.7604 42.4767V42.2687C40.7604 42.0421 40.7399 41.8429 40.6989 41.671C40.6579 41.4991 40.5974 41.3546 40.5173 41.2374C40.4372 41.1202 40.3395 41.0323 40.2243 40.9738C40.1091 40.9132 39.9772 40.8829 39.8288 40.8829C39.6804 40.8829 39.5485 40.9132 39.4333 40.9738C39.32 41.0323 39.2233 41.1202 39.1432 41.2374C39.0651 41.3546 39.0056 41.4991 38.9645 41.671C38.9235 41.8429 38.903 42.0421 38.903 42.2687V42.4767C38.903 42.7013 38.9235 42.9005 38.9645 43.0743C39.0056 43.2462 39.0661 43.3917 39.1462 43.5109C39.2263 43.6281 39.3239 43.7169 39.4391 43.7775C39.5544 43.838 39.6862 43.8683 39.8347 43.8683C39.9831 43.8683 40.1149 43.838 40.2302 43.7775C40.3454 43.7169 40.4421 43.6281 40.5202 43.5109C40.5983 43.3917 40.6579 43.2462 40.6989 43.0743C40.7399 42.9005 40.7604 42.7013 40.7604 42.4767ZM44.5016 43.3907C44.5016 43.3146 44.4899 43.2462 44.4665 43.1857C44.445 43.1232 44.404 43.0665 44.3434 43.0157C44.2829 42.963 44.1979 42.9113 44.0886 42.8605C43.9792 42.8097 43.8376 42.757 43.6638 42.7023C43.4704 42.6398 43.2868 42.5695 43.113 42.4913C42.9411 42.4132 42.7888 42.3224 42.6559 42.2189C42.5251 42.1134 42.4216 41.9913 42.3454 41.8527C42.2712 41.714 42.2341 41.5529 42.2341 41.3693C42.2341 41.1915 42.2731 41.0304 42.3513 40.8859C42.4294 40.7394 42.5388 40.6144 42.6794 40.5109C42.82 40.4054 42.986 40.3243 43.1774 40.2677C43.3708 40.2111 43.5827 40.1827 43.8132 40.1827C44.1276 40.1827 44.402 40.2394 44.6364 40.3527C44.8708 40.4659 45.0524 40.6212 45.1813 40.8185C45.3122 41.0157 45.3776 41.2413 45.3776 41.4952H44.5046C44.5046 41.3702 44.4782 41.2609 44.4255 41.1671C44.3747 41.0714 44.2966 40.9962 44.1911 40.9415C44.0876 40.8868 43.9567 40.8595 43.7985 40.8595C43.6462 40.8595 43.5192 40.8829 43.4177 40.9298C43.3161 40.9747 43.2399 41.0363 43.1891 41.1144C43.1384 41.1906 43.113 41.2765 43.113 41.3722C43.113 41.4445 43.1306 41.5099 43.1657 41.5685C43.2028 41.6271 43.2575 41.6818 43.3298 41.7325C43.402 41.7833 43.4909 41.8312 43.5964 41.8761C43.7018 41.921 43.8239 41.965 43.9626 42.0079C44.195 42.0782 44.3991 42.1573 44.5749 42.2452C44.7526 42.3331 44.9011 42.4318 45.0202 42.5411C45.1393 42.6505 45.2292 42.7745 45.2897 42.9132C45.3503 43.0519 45.3806 43.2091 45.3806 43.3849C45.3806 43.5704 45.3444 43.7365 45.2722 43.8829C45.1999 44.0294 45.0954 44.1534 44.9587 44.255C44.822 44.3566 44.6589 44.4337 44.4694 44.4865C44.28 44.5392 44.0681 44.5656 43.8337 44.5656C43.6227 44.5656 43.4147 44.5382 43.2097 44.4835C43.0046 44.4269 42.8181 44.3419 42.6501 44.2286C42.4841 44.1154 42.3513 43.9708 42.2516 43.795C42.152 43.6193 42.1022 43.4113 42.1022 43.171H42.9841C42.9841 43.3038 43.0046 43.4161 43.0456 43.5079C43.0866 43.5997 43.1442 43.674 43.2184 43.7306C43.2946 43.7872 43.3845 43.8282 43.488 43.8536C43.5934 43.879 43.7087 43.8917 43.8337 43.8917C43.986 43.8917 44.111 43.8702 44.2087 43.8273C44.3083 43.7843 44.3815 43.7247 44.4284 43.6486C44.4772 43.5724 44.5016 43.4865 44.5016 43.3907ZM47.8854 40.2413V44.507H47.0095V40.2413H47.8854ZM49.1979 40.2413V40.9298H45.7175V40.2413H49.1979ZM52.5612 43.8214V44.507H50.2907V43.8214H52.5612ZM50.5778 40.2413V44.507H49.6989V40.2413H50.5778ZM52.2653 41.9786V42.6466H50.2907V41.9786H52.2653ZM52.5583 40.2413V40.9298H50.2907V40.2413H52.5583ZM53.0739 40.2413H54.6647C54.9909 40.2413 55.2712 40.2902 55.5056 40.3878C55.7419 40.4855 55.9235 40.63 56.0505 40.8214C56.1774 41.0128 56.2409 41.2482 56.2409 41.5275C56.2409 41.756 56.2018 41.9523 56.1237 42.1163C56.0475 42.2784 55.9391 42.4142 55.7985 42.5236C55.6599 42.631 55.4968 42.7169 55.3093 42.7814L55.0309 42.9279H53.6481L53.6423 42.2423H54.6706C54.8249 42.2423 54.9528 42.215 55.0544 42.1603C55.1559 42.1056 55.2321 42.0294 55.2829 41.9318C55.3356 41.8341 55.362 41.7208 55.362 41.5919C55.362 41.4552 55.3366 41.337 55.2858 41.2374C55.235 41.1378 55.1579 41.0616 55.0544 41.0089C54.9509 40.9562 54.821 40.9298 54.6647 40.9298H53.9528V44.507H53.0739V40.2413ZM55.4587 44.507L54.486 42.6056L55.4147 42.5997L56.3991 44.4659V44.507H55.4587ZM60.0729 42.9865H58.986V42.3009H60.0729C60.2409 42.3009 60.3776 42.2736 60.4831 42.2189C60.5886 42.1622 60.6657 42.0841 60.7145 41.9845C60.7634 41.8849 60.7878 41.7726 60.7878 41.6476C60.7878 41.5206 60.7634 41.4025 60.7145 41.2931C60.6657 41.1837 60.5886 41.0958 60.4831 41.0294C60.3776 40.963 60.2409 40.9298 60.0729 40.9298H59.2907V44.507H58.4118V40.2413H60.0729C60.4069 40.2413 60.6931 40.3019 60.9313 40.423C61.1716 40.5421 61.3552 40.7072 61.4821 40.9181C61.6091 41.129 61.6725 41.3702 61.6725 41.6417C61.6725 41.9171 61.6091 42.1554 61.4821 42.3566C61.3552 42.5577 61.1716 42.713 60.9313 42.8224C60.6931 42.9318 60.4069 42.9865 60.0729 42.9865ZM65.1413 43.8214V44.507H62.8708V43.8214H65.1413ZM63.1579 40.2413V44.507H62.279V40.2413H63.1579ZM64.8454 41.9786V42.6466H62.8708V41.9786H64.8454ZM65.1384 40.2413V40.9298H62.8708V40.2413H65.1384ZM67.6198 40.2413V44.507H66.7438V40.2413H67.6198ZM68.9323 40.2413V40.9298H65.4518V40.2413H68.9323ZM72.2956 43.8214V44.507H70.0251V43.8214H72.2956ZM70.3122 40.2413V44.507H69.4333V40.2413H70.3122ZM71.9997 41.9786V42.6466H70.0251V41.9786H71.9997ZM72.2927 40.2413V40.9298H70.0251V40.2413H72.2927ZM72.8083 40.2413H74.3991C74.7253 40.2413 75.0056 40.2902 75.2399 40.3878C75.4763 40.4855 75.6579 40.63 75.7849 40.8214C75.9118 41.0128 75.9753 41.2482 75.9753 41.5275C75.9753 41.756 75.9362 41.9523 75.8581 42.1163C75.7819 42.2784 75.6735 42.4142 75.5329 42.5236C75.3942 42.631 75.2311 42.7169 75.0436 42.7814L74.7653 42.9279H73.3825L73.3766 42.2423H74.405C74.5593 42.2423 74.6872 42.215 74.7888 42.1603C74.8903 42.1056 74.9665 42.0294 75.0173 41.9318C75.07 41.8341 75.0964 41.7208 75.0964 41.5919C75.0964 41.4552 75.071 41.337 75.0202 41.2374C74.9694 41.1378 74.8923 41.0616 74.7888 41.0089C74.6852 40.9562 74.5554 40.9298 74.3991 40.9298H73.6872V44.507H72.8083V40.2413ZM75.1931 44.507L74.2204 42.6056L75.1491 42.5997L76.1335 44.4659V44.507H75.1931ZM78.8727 43.3907C78.8727 43.3146 78.861 43.2462 78.8376 43.1857C78.8161 43.1232 78.7751 43.0665 78.7145 43.0157C78.654 42.963 78.569 42.9113 78.4597 42.8605C78.3503 42.8097 78.2087 42.757 78.0349 42.7023C77.8415 42.6398 77.6579 42.5695 77.4841 42.4913C77.3122 42.4132 77.1599 42.3224 77.027 42.2189C76.8962 42.1134 76.7927 41.9913 76.7165 41.8527C76.6423 41.714 76.6052 41.5529 76.6052 41.3693C76.6052 41.1915 76.6442 41.0304 76.7224 40.8859C76.8005 40.7394 76.9099 40.6144 77.0505 40.5109C77.1911 40.4054 77.3571 40.3243 77.5485 40.2677C77.7419 40.2111 77.9538 40.1827 78.1843 40.1827C78.4987 40.1827 78.7731 40.2394 79.0075 40.3527C79.2419 40.4659 79.4235 40.6212 79.5524 40.8185C79.6833 41.0157 79.7487 41.2413 79.7487 41.4952H78.8757C78.8757 41.3702 78.8493 41.2609 78.7966 41.1671C78.7458 41.0714 78.6677 40.9962 78.5622 40.9415C78.4587 40.8868 78.3278 40.8595 78.1696 40.8595C78.0173 40.8595 77.8903 40.8829 77.7888 40.9298C77.6872 40.9747 77.611 41.0363 77.5602 41.1144C77.5095 41.1906 77.4841 41.2765 77.4841 41.3722C77.4841 41.4445 77.5016 41.5099 77.5368 41.5685C77.5739 41.6271 77.6286 41.6818 77.7009 41.7325C77.7731 41.7833 77.862 41.8312 77.9675 41.8761C78.0729 41.921 78.195 41.965 78.3337 42.0079C78.5661 42.0782 78.7702 42.1573 78.946 42.2452C79.1237 42.3331 79.2722 42.4318 79.3913 42.5411C79.5104 42.6505 79.6003 42.7745 79.6608 42.9132C79.7214 43.0519 79.7516 43.2091 79.7516 43.3849C79.7516 43.5704 79.7155 43.7365 79.6432 43.8829C79.571 44.0294 79.4665 44.1534 79.3298 44.255C79.1931 44.3566 79.03 44.4337 78.8405 44.4865C78.6511 44.5392 78.4391 44.5656 78.2048 44.5656C77.9938 44.5656 77.7858 44.5382 77.5807 44.4835C77.3757 44.4269 77.1891 44.3419 77.0212 44.2286C76.8552 44.1154 76.7224 43.9708 76.6227 43.795C76.5231 43.6193 76.4733 43.4113 76.4733 43.171H77.3552C77.3552 43.3038 77.3757 43.4161 77.4167 43.5079C77.4577 43.5997 77.5153 43.674 77.5895 43.7306C77.6657 43.7872 77.7556 43.8282 77.8591 43.8536C77.9645 43.879 78.0798 43.8917 78.2048 43.8917C78.3571 43.8917 78.4821 43.8702 78.5798 43.8273C78.6794 43.7843 78.7526 43.7247 78.7995 43.6486C78.8483 43.5724 78.8727 43.4865 78.8727 43.3907Z" fill="#AFB1B8"/>
</svg>
